<svg width="32" height="32" viewBox="0 0 32 32" fill="none" xmlns="http://www.w3.org/2000/svg">
<path d="M18.8168 8.96305H26.8558C27.4522 8.96305 27.7504 8.96305 27.9248 9.08844C28.0769 9.19785 28.176 9.36624 28.1978 9.55238C28.2227 9.76572 28.0779 10.0264 27.7882 10.5477L25.8288 14.0747C25.7238 14.2637 25.6713 14.3583 25.6507 14.4584C25.6325 14.547 25.6325 14.6384 25.6507 14.727C25.6713 14.8271 25.7238 14.9216 25.8288 15.1107L27.7882 18.6376C28.0779 19.159 28.2227 19.4196 28.1978 19.633C28.176 19.8191 28.0769 19.9875 27.9248 20.0969C27.7504 20.2223 27.4522 20.2223 26.8558 20.2223H16.7279C15.9811 20.2223 15.6078 20.2223 15.3225 20.077C15.0717 19.9492 14.8677 19.7452 14.7399 19.4943C14.5945 19.2091 14.5945 18.8357 14.5945 18.089V14.5927M9.66862 28.6671L4.03899 6.1486M6.15016 14.5928H16.6834C17.4302 14.5928 17.8035 14.5928 18.0887 14.4474C18.3396 14.3196 18.5436 14.1156 18.6714 13.8647C18.8168 13.5795 18.8168 13.2062 18.8168 12.4594V5.46683C18.8168 4.72009 18.8168 4.34672 18.6714 4.06151C18.5436 3.81063 18.3396 3.60665 18.0887 3.47882C17.8035 3.3335 17.4302 3.3335 16.6834 3.3335H6.06758C5.13622 3.3335 4.67054 3.3335 4.35203 3.52648C4.07287 3.69562 3.86545 3.96128 3.76907 4.27312C3.6591 4.62893 3.77205 5.08071 3.99795 5.98426L6.15016 14.5928Z" stroke="#0F0F0F" stroke-width="2" stroke-linecap="round" stroke-linejoin="round"/>
</svg>
