<svg width="56" height="56" viewBox="0 0 56 56" fill="none" xmlns="http://www.w3.org/2000/svg">
<path d="M12.406 45.3566C13.8254 42.0125 17.1395 39.667 21.0013 39.667H35.0013C38.8632 39.667 42.1772 42.0125 43.5966 45.3566M37.3346 22.167C37.3346 27.3217 33.156 31.5003 28.0013 31.5003C22.8466 31.5003 18.668 27.3217 18.668 22.167C18.668 17.0123 22.8466 12.8337 28.0013 12.8337C33.156 12.8337 37.3346 17.0123 37.3346 22.167ZM51.3346 28.0003C51.3346 40.887 40.888 51.3337 28.0013 51.3337C15.1147 51.3337 4.66797 40.887 4.66797 28.0003C4.66797 15.1137 15.1147 4.66699 28.0013 4.66699C40.888 4.66699 51.3346 15.1137 51.3346 28.0003Z" stroke="#0F0F0F" stroke-width="3" stroke-linecap="round" stroke-linejoin="round"/>
</svg>
