<svg width="54" height="54" viewBox="0 0 54 54" fill="none" xmlns="http://www.w3.org/2000/svg">
<path d="M27 1.5C12.9167 1.5 1.5 12.9167 1.5 27C1.5 41.0833 12.9167 52.5 27 52.5C41.0833 52.5 52.5 41.0833 52.5 27C52.5 12.9167 41.0833 1.5 27 1.5Z" fill="white"/>
<path d="M27 1.5C12.9167 1.5 1.5 12.9167 1.5 27C1.5 41.0833 12.9167 52.5 27 52.5C41.0833 52.5 52.5 41.0833 52.5 27C52.5 12.9167 41.0833 1.5 27 1.5Z" stroke="#F5F5F5" stroke-width="3"/>
<g clip-path="url(#clip0_10366_398)">
<path d="M39.6364 17.2173C40.4065 18.187 41.0339 19.2708 41.5473 20.4116L27.0018 31.1638L20.8984 27.3135V22.7217L26.9733 26.5435L39.6364 17.2173Z" fill="#21A038"/>
<path d="M14.6791 26.9999C14.6791 26.7718 14.6791 26.6007 14.7077 26.3725L11.0285 26.1729C11.0285 26.4295 11 26.7147 11 26.9714C11 31.3921 12.7968 35.385 15.7059 38.2941L18.3298 35.6702C16.0766 33.4741 14.6791 30.3939 14.6791 26.9999Z" fill="url(#paint0_linear_10366_398)"/>
<path d="M26.9699 14.7075C27.1981 14.7075 27.3692 14.7075 27.5973 14.736L27.797 11.0568C27.5403 11.0568 27.2551 11.0283 26.9984 11.0283C22.5777 11.0283 18.5849 12.8251 15.6758 15.7342L18.2997 18.3581C20.5243 16.105 23.6045 14.7075 26.9699 14.7075Z" fill="url(#paint1_linear_10366_398)"/>
<path d="M26.9716 39.2922C26.7435 39.2922 26.5723 39.2922 26.3442 39.2637L26.1445 42.9428C26.4012 42.9428 26.6864 42.9714 26.9431 42.9714C31.3638 42.9714 35.3567 41.1746 38.2657 38.2655L35.6419 35.6416C33.4458 37.9232 30.3941 39.2922 26.9716 39.2922Z" fill="url(#paint2_linear_10366_398)"/>
<path d="M33.9031 16.8467L37.0119 14.5365C34.3024 12.3405 30.7944 11 26.9727 11V14.6791C29.568 14.7077 31.9637 15.5062 33.9031 16.8467Z" fill="url(#paint3_linear_10366_398)"/>
<path d="M42.9724 27.0002C42.9724 26.0305 42.8869 25.0893 42.7157 24.1196L39.2933 26.6865C39.2933 26.772 39.2933 26.9146 39.2933 27.0002C39.2933 30.6223 37.7246 33.8736 35.2148 36.0982L37.6961 38.8362C40.9475 35.9556 42.9724 31.7061 42.9724 27.0002Z" fill="#21A038"/>
<path d="M26.9727 39.2923C23.3506 39.2923 20.0993 37.7237 17.8747 35.2139L15.1367 37.6951C18.0743 40.9465 22.2954 42.9714 26.9727 42.9714V39.2923Z" fill="url(#paint4_linear_10366_398)"/>
<path d="M18.7576 17.902L16.2763 15.1641C13.025 18.0732 11 22.2942 11 27.0001H14.6791C14.6791 23.4065 16.2478 20.1266 18.7576 17.902Z" fill="url(#paint5_linear_10366_398)"/>
</g>
<defs>
<linearGradient id="paint0_linear_10366_398" x1="15.4103" y1="37.8154" x2="11.6468" y2="26.9368" gradientUnits="userSpaceOnUse">
<stop offset="0.1444" stop-color="#F2E913"/>
<stop offset="0.3037" stop-color="#E7E518"/>
<stop offset="0.5823" stop-color="#CADB26"/>
<stop offset="0.891" stop-color="#A3CD39"/>
</linearGradient>
<linearGradient id="paint1_linear_10366_398" x1="16.7779" y1="15.4179" x2="26.3395" y2="11.7742" gradientUnits="userSpaceOnUse">
<stop offset="0.0592" stop-color="#0FA8E0"/>
<stop offset="0.5385" stop-color="#0099F9"/>
<stop offset="0.9234" stop-color="#0291EB"/>
</linearGradient>
<linearGradient id="paint2_linear_10366_398" x1="25.929" y1="39.7924" x2="37.3255" y2="37.2167" gradientUnits="userSpaceOnUse">
<stop offset="0.1226" stop-color="#A3CD39"/>
<stop offset="0.2846" stop-color="#86C339"/>
<stop offset="0.8693" stop-color="#21A038"/>
</linearGradient>
<linearGradient id="paint3_linear_10366_398" x1="26.1887" y1="13.4319" x2="35.6658" y2="16.3562" gradientUnits="userSpaceOnUse">
<stop offset="0.0566" stop-color="#0291EB"/>
<stop offset="0.79" stop-color="#0C8ACB"/>
</linearGradient>
<linearGradient id="paint4_linear_10366_398" x1="16.1008" y1="38.1934" x2="26.2781" y2="41.9958" gradientUnits="userSpaceOnUse">
<stop offset="0.1324" stop-color="#F2E913"/>
<stop offset="0.2977" stop-color="#EBE716"/>
<stop offset="0.5306" stop-color="#D9E01F"/>
<stop offset="0.8023" stop-color="#BBD62D"/>
<stop offset="0.9829" stop-color="#A3CD39"/>
</linearGradient>
<linearGradient id="paint5_linear_10366_398" x1="13.9332" y1="27.5035" x2="18.0027" y2="16.9171" gradientUnits="userSpaceOnUse">
<stop offset="0.0698" stop-color="#A3CD39"/>
<stop offset="0.2599" stop-color="#81C55F"/>
<stop offset="0.9216" stop-color="#0FA8E0"/>
</linearGradient>
<clipPath id="clip0_10366_398">
<rect width="32" height="32" fill="white" transform="translate(11 11)"/>
</clipPath>
</defs>
</svg>
