<svg width="54" height="54" viewBox="0 0 54 54" fill="none" xmlns="http://www.w3.org/2000/svg">
<path d="M27 1.5C12.9167 1.5 1.5 12.9167 1.5 27C1.5 41.0833 12.9167 52.5 27 52.5C41.0833 52.5 52.5 41.0833 52.5 27C52.5 12.9167 41.0833 1.5 27 1.5Z" fill="white"/>
<path d="M27 1.5C12.9167 1.5 1.5 12.9167 1.5 27C1.5 41.0833 12.9167 52.5 27 52.5C41.0833 52.5 52.5 41.0833 52.5 27C52.5 12.9167 41.0833 1.5 27 1.5Z" stroke="#F5F5F5" stroke-width="3"/>
<g clip-path="url(#clip0_10366_417)">
<path d="M19.0212 18.9767C19.0212 14.5427 22.6005 10.9634 27.0345 10.9634C31.4686 10.9634 35.0479 14.5427 35.0479 18.9767H19.0212ZM19.0212 35.0034C19.0212 30.5694 22.6005 26.9901 27.0345 26.9901C22.6005 26.9901 19.0212 23.4108 19.0212 18.9767C14.5871 18.9767 11.0078 22.556 11.0078 26.9901C11.0078 31.4241 14.5871 35.0034 19.0212 35.0034ZM19.0212 35.0034C19.0212 39.4375 22.6005 43.0168 27.0345 43.0168C31.4686 43.0168 35.0479 39.4375 35.0479 35.0034H19.0212ZM26.9811 26.9901C31.4152 26.9901 34.9945 30.5694 34.9945 35.0034C39.4285 35.0034 43.0078 31.4241 43.0078 26.9901C43.0078 22.556 39.4285 18.9767 34.9945 18.9767C34.9945 23.4108 31.4152 26.9901 26.9811 26.9901Z" fill="#007A73"/>
</g>
<defs>
<clipPath id="clip0_10366_417">
<rect width="32" height="32" fill="white" transform="translate(11 11)"/>
</clipPath>
</defs>
</svg>
