<svg width="54" height="54" viewBox="0 0 54 54" fill="none" xmlns="http://www.w3.org/2000/svg">
<rect x="1.5" y="1.5" width="51" height="51" rx="25.5" fill="#6E0D25"/>
<rect x="1.5" y="1.5" width="51" height="51" rx="25.5" stroke="white" stroke-width="3"/>
<path d="M13.5625 30.6094V29.4531L18.6719 21.3594H19.5156V23.1562H18.9375L15.0781 29.2656V29.3594H21.9688V30.6094H13.5625ZM19.0312 33V30.2656V29.7188V21.3594H20.375V33H19.0312ZM26.6606 33.1562C25.8065 33.1562 25.0773 32.9219 24.4731 32.4531C23.869 31.9844 23.408 31.3073 23.0903 30.4219C22.7726 29.5312 22.6138 28.4531 22.6138 27.1875C22.6138 25.9271 22.7726 24.8516 23.0903 23.9609C23.4132 23.0651 23.8768 22.3828 24.4809 21.9141C25.0851 21.4401 25.8117 21.2031 26.6606 21.2031C27.5096 21.2031 28.2361 21.4401 28.8403 21.9141C29.4445 22.3828 29.9054 23.0651 30.2231 23.9609C30.546 24.8516 30.7075 25.9271 30.7075 27.1875C30.7075 28.4531 30.5486 29.5312 30.2309 30.4219C29.9132 31.3073 29.4523 31.9844 28.8481 32.4531C28.2492 32.9219 27.52 33.1562 26.6606 33.1562ZM26.6606 31.9219C27.2388 31.9219 27.7283 31.737 28.1294 31.3672C28.5304 30.9922 28.8351 30.4505 29.0434 29.7422C29.257 29.0339 29.3638 28.1823 29.3638 27.1875C29.3638 26.1875 29.257 25.3333 29.0434 24.625C28.8351 23.9167 28.5304 23.375 28.1294 23C27.7283 22.625 27.2388 22.4375 26.6606 22.4375C25.796 22.4375 25.1294 22.8542 24.6606 23.6875C24.1919 24.5208 23.9575 25.6875 23.9575 27.1875C23.9575 28.1823 24.0617 29.0339 24.27 29.7422C24.4835 30.4505 24.7908 30.9922 25.1919 31.3672C25.5981 31.737 26.0877 31.9219 26.6606 31.9219ZM35.0713 32.2031V24.7031H36.3369V32.2031H35.0713ZM31.9463 29.0938V27.8125H39.4463V29.0938H31.9463Z" fill="white"/>
</svg>
