<svg width="32" height="32" viewBox="0 0 32 32" fill="none" xmlns="http://www.w3.org/2000/svg">
<path d="M29.3346 15.9998C29.3346 23.3636 23.3651 29.3332 16.0013 29.3332M29.3346 15.9998C29.3346 8.63604 23.3651 2.6665 16.0013 2.6665M29.3346 15.9998H26.668M16.0013 29.3332C8.6375 29.3332 2.66797 23.3636 2.66797 15.9998M16.0013 29.3332V26.6665M2.66797 15.9998C2.66797 8.63604 8.6375 2.6665 16.0013 2.6665M2.66797 15.9998H5.33464M16.0013 2.6665V5.33317M25.4294 25.4279L23.5438 23.5423M8.45883 8.45736L6.57321 6.57175M23.5438 8.45736L25.4294 6.57175M6.57321 25.4279L8.45883 23.5423M10.668 15.9998L14.0013 13.9998L16.0013 10.6665L18.0013 13.9998L21.3346 15.9998L18.0013 17.9998L16.0013 21.3332L14.0013 17.9998L10.668 15.9998Z" stroke="#0F0F0F" stroke-width="2" stroke-linecap="round" stroke-linejoin="round"/>
</svg>
