<svg width="56" height="56" viewBox="0 0 56 56" fill="none" xmlns="http://www.w3.org/2000/svg">
<path d="M37.3346 8.09144C40.792 9.80959 43.168 13.3773 43.168 17.5C43.168 21.6227 40.792 25.1904 37.3346 26.9086M42.0013 39.1216C45.528 40.7175 48.7039 43.3183 51.3346 46.6667M4.66797 46.6667C9.20978 40.886 15.3761 37.3333 22.168 37.3333C28.9599 37.3333 35.1262 40.886 39.668 46.6667M32.668 17.5C32.668 23.299 27.967 28 22.168 28C16.369 28 11.668 23.299 11.668 17.5C11.668 11.701 16.369 7 22.168 7C27.967 7 32.668 11.701 32.668 17.5Z" stroke="#0F0F0F" stroke-width="3" stroke-linecap="round" stroke-linejoin="round"/>
</svg>
