<svg width="56" height="56" viewBox="0 0 56 56" fill="none" xmlns="http://www.w3.org/2000/svg">
<path d="M28.0013 37.3333V49M42.0013 49L32.7813 41.3167C31.0809 39.8996 30.2306 39.1911 29.2815 38.9203C28.4447 38.6816 27.5579 38.6816 26.7211 38.9203C25.772 39.1911 24.9217 39.8996 23.2213 41.3167L14.0013 49M18.668 25.6667V28M28.0013 21V28M37.3346 16.3333V28M51.3346 7H4.66797M7.0013 7H49.0013V26.1333C49.0013 30.0537 49.0013 32.0139 48.2383 33.5113C47.5672 34.8284 46.4964 35.8993 45.1792 36.5704C43.6819 37.3333 41.7217 37.3333 37.8013 37.3333H18.2013C14.2809 37.3333 12.3208 37.3333 10.8234 36.5704C9.50623 35.8993 8.43537 34.8284 7.76426 33.5113C7.0013 32.0139 7.0013 30.0537 7.0013 26.1333V7Z" stroke="#0F0F0F" stroke-width="3" stroke-linecap="round" stroke-linejoin="round"/>
</svg>
