<svg width="54" height="54" viewBox="0 0 54 54" fill="none" xmlns="http://www.w3.org/2000/svg">
<path d="M27 1.5C12.9167 1.5 1.5 12.9167 1.5 27C1.5 41.0833 12.9167 52.5 27 52.5C41.0833 52.5 52.5 41.0833 52.5 27C52.5 12.9167 41.0833 1.5 27 1.5Z" fill="white"/>
<path d="M27 1.5C12.9167 1.5 1.5 12.9167 1.5 27C1.5 41.0833 12.9167 52.5 27 52.5C41.0833 52.5 52.5 41.0833 52.5 27C52.5 12.9167 41.0833 1.5 27 1.5Z" stroke="#F5F5F5" stroke-width="3"/>
<g clip-path="url(#clip0_10366_391)">
<path fill-rule="evenodd" clip-rule="evenodd" d="M34.3619 21.6464C33.8739 21.6464 33.6299 21.6464 33.6299 21.8897C33.6299 21.8897 33.6299 22.1331 33.3859 22.1331L31.007 30.6502C30.519 33.692 26.7371 36.5513 22.0402 36.5513H15.4524L16.6114 32.0494H20.8813C21.3692 32.0494 21.6132 31.8061 22.0402 31.5627C22.0402 31.3194 22.2842 31.3194 22.2842 31.076L24.1752 23.5323C24.6631 20.4905 27.957 17.1445 32.7149 17.1445H39.5467L38.5707 21.1597H34.3009V21.6464H34.3619ZM36.0088 26.8175L36.7408 23.9582H43.5726C44.5485 19.943 43.8166 16.1711 41.1936 13.7985C36.2528 8.87072 26.1271 10.5133 18.3193 17.8745C17.1604 19.0304 16.1844 20.2472 15.2694 21.403H19.5393L18.5633 24.2624H13.5615C13.0735 25.2357 12.5855 25.9049 12.4025 26.8783H18.3193L17.3434 29.7376H11.4265C10.4506 33.9962 10.9386 38.0114 13.5615 40.3232C18.5023 45.251 28.689 43.365 36.2528 36.0646C37.6558 34.9087 38.6317 33.4487 39.7907 32.0494H34.3619L35.0938 29.1901H41.4986C41.9866 28.2167 42.4746 27.5475 42.6576 26.5741H36.0088V26.8175Z" fill="#1D1D1D"/>
</g>
<defs>
<clipPath id="clip0_10366_391">
<rect width="33" height="32" fill="white" transform="translate(11 11)"/>
</clipPath>
</defs>
</svg>
